<?xml version="1.0" encoding="UTF-8" standalone="no"?>
<svg
   viewBox="0 0 256 256"
   version="1.1"
   id="svg4"
   sodipodi:docname="activities1.svg"
   inkscape:export-filename="/home/ximena/IconsL/view-app-grid-symbolic.png"
   inkscape:export-xdpi="96"
   inkscape:export-ydpi="96"
   inkscape:version="1.2.1 (1:1.2.1+202210291243+9c6d41e410)"
   width="256"
   height="256"
   xml:space="preserve"
   xmlns:inkscape="http://www.inkscape.org/namespaces/inkscape"
   xmlns:sodipodi="http://sodipodi.sourceforge.net/DTD/sodipodi-0.dtd"
   xmlns="http://www.w3.org/2000/svg"
   xmlns:svg="http://www.w3.org/2000/svg"><defs
     id="defs8"><style
       id="style1842">.cls-1{fill:#e9500e;}</style></defs><sodipodi:namedview
     id="namedview6"
     pagecolor="#ffffff"
     bordercolor="#000000"
     borderopacity="0.25"
     inkscape:pageshadow="2"
     inkscape:pageopacity="0.0"
     inkscape:pagecheckerboard="0"
     showgrid="false"
     inkscape:zoom="2.8284272"
     inkscape:cx="108.01056"
     inkscape:cy="135.41094"
     inkscape:window-width="1920"
     inkscape:window-height="1020"
     inkscape:window-x="0"
     inkscape:window-y="28"
     inkscape:window-maximized="1"
     inkscape:current-layer="svg4"
     inkscape:snap-nodes="true"
     inkscape:showpageshadow="2"
     inkscape:deskcolor="#d1d1d1"
     showguides="false"><inkscape:grid
       type="xygrid"
       id="grid902" /></sodipodi:namedview><path
     id="path2285"
     style="display:inline;opacity:0.904859;fill:#f9f9f9;fill-opacity:0.988235;stroke-width:1.59397"
     d="M 128.06836,9.9453125 A 117.41547,117.41547 0 0 0 10.652344,127.36133 117.41547,117.41547 0 0 0 128.06836,244.77539 117.41547,117.41547 0 0 0 245.48242,127.36133 117.41547,117.41547 0 0 0 128.06836,9.9453125 Z m 34.22852,36.0878905 a 24.021391,24.021391 0 0 1 24.02148,24.021485 24.021391,24.021391 0 0 1 -24.02148,24.021484 24.021391,24.021391 0 0 1 -24.02149,-24.021484 24.021391,24.021391 0 0 1 24.02149,-24.021485 z m -33.03711,2.433594 c 1.87796,0.0108 3.76244,0.08877 5.65039,0.238281 A 34.830704,34.830704 0 0 0 127.62305,68.1875 58.585909,58.585909 0 0 0 80.449219,93.416016 34.667346,34.667346 0 0 0 62.232422,88.228516 c -0.610275,-3.34e-4 -1.220439,0.01732 -1.830078,0.05078 C 74.416617,63.550971 101.09036,48.304795 129.25977,48.466797 Z M 194.25,83.648438 A 78.590122,78.590122 0 0 1 190.3125,175.85742 34.447133,34.447133 0 0 0 178.81641,157.96094 58.891384,58.891384 0 0 0 180.74219,99.46875 34.622874,34.622874 0 0 0 194.25,83.648438 Z M 62.255859,98.705078 A 24.021387,24.021387 0 0 1 86.277344,122.72656 24.021387,24.021387 0 0 1 62.255859,146.74805 24.021387,24.021387 0 0 1 38.234375,122.72656 24.021387,24.021387 0 0 1 62.255859,98.705078 Z m 14.283203,55.417972 a 58.50186,58.50186 0 0 0 39.894528,30.42578 c 1.93785,0.4147 3.91411,0.73531 5.89258,0.95508 a 34.371421,34.371421 0 0 0 7.03321,20.08398 79.142524,79.142524 0 0 1 -17.0586,-1.75586 A 78.201178,78.201178 0 0 1 56,156.64648 34.579564,34.579564 0 0 0 76.539062,154.12305 Z m 80.345708,6.53711 a 24.021391,24.021391 0 0 1 24.02148,24.02148 24.021391,24.021391 0 0 1 -24.02148,24.02148 24.021391,24.021391 0 0 1 -24.02149,-24.02148 24.021391,24.021391 0 0 1 24.02149,-24.02148 z" /></svg>
